<?xml version="1.0" standalone="no"?>
<!DOCTYPE svg PUBLIC "-//W3C//DTD SVG 20010904//EN"
 "http://www.w3.org/TR/2001/REC-SVG-20010904/DTD/svg10.dtd">
<svg version="1.0" xmlns="http://www.w3.org/2000/svg"
 width="512.000000pt" height="512.000000pt" viewBox="0 0 512.000000 512.000000"
 preserveAspectRatio="xMidYMid meet">
<metadata>
Created by potrace 1.14, written by Peter Selinger 2001-2017
</metadata>
<g transform="translate(0.000000,512.000000) scale(0.100000,-0.100000)"
fill="#000000" stroke="none">
<path d="M2365 4694 c-469 -72 -763 -267 -921 -610 -62 -134 -86 -247 -87
-414 -2 -175 20 -276 89 -418 38 -79 160 -250 186 -260 4 -2 5 -9 1 -15 -3 -7
-3 -9 2 -5 11 10 35 -10 31 -25 -1 -7 -1 -8 2 -4 2 4 10 3 18 -4 8 -6 11 -15
8 -20 -3 -5 -2 -8 3 -7 15 4 54 -23 47 -34 -4 -7 -3 -8 5 -4 6 4 14 0 17 -8 3
-9 15 -16 25 -16 10 0 19 -5 19 -11 0 -5 -5 -7 -12 -3 -7 4 -8 3 -4 -4 4 -6
13 -9 21 -5 14 5 21 -13 16 -40 -1 -5 3 -6 9 -2 6 3 8 11 4 16 -3 6 13 1 36
-11 23 -12 45 -30 47 -41 5 -16 8 -17 21 -7 12 10 14 10 8 1 -4 -8 -2 -13 5
-13 8 0 8 -5 -2 -17 -10 -14 -8 -13 10 2 14 11 21 14 17 8 -4 -8 -1 -13 8 -13
8 0 18 -9 21 -20 3 -11 14 -20 23 -20 16 1 15 2 0 11 -10 5 -18 15 -18 20 0 6
7 3 16 -5 8 -9 20 -16 25 -16 6 0 8 -4 5 -9 -3 -5 5 -11 17 -15 13 -3 28 -15
34 -28 8 -19 10 -20 16 -4 4 10 3 15 -3 11 -6 -3 -10 -1 -10 4 0 6 3 11 8 11
11 -1 42 -26 42 -35 0 -4 -8 -1 -17 6 -16 13 -17 12 -5 -3 14 -18 46 -13 36 6
-3 6 4 0 15 -13 12 -12 19 -26 17 -30 -3 -4 6 -8 20 -9 13 -1 24 2 24 7 0 5
-7 8 -16 7 -9 0 -19 6 -21 14 -4 12 -3 13 5 1 5 -7 15 -10 21 -7 13 8 32 -33
23 -49 -3 -5 5 -1 18 10 l23 20 -7 -25 c-5 -18 -5 -21 3 -11 10 15 41 25 40
13 -1 -4 -1 -13 0 -21 1 -13 3 -13 14 0 6 8 11 13 10 10 -6 -11 30 -32 47 -28
11 3 23 1 26 -5 3 -5 12 -7 20 -4 17 7 28 -10 13 -20 -8 -5 -9 -3 -4 6 5 9 4
11 -4 6 -6 -4 -9 -12 -5 -17 3 -5 9 -7 14 -4 4 3 10 0 12 -7 2 -6 12 -12 21
-14 9 -1 15 2 11 7 -3 5 2 9 11 9 9 0 13 -4 10 -10 -3 -5 1 -10 9 -10 9 0 16
-6 16 -12 0 -9 3 -9 8 -3 9 14 52 17 52 4 0 -6 -4 -8 -8 -5 -4 2 -14 0 -22 -5
-12 -7 -11 -8 5 -6 11 1 26 7 34 11 10 7 12 6 6 -4 -6 -10 -4 -12 7 -7 9 3 24
0 34 -7 11 -7 27 -12 37 -10 9 1 15 -2 11 -7 -3 -5 0 -9 6 -9 6 0 9 -4 6 -8
-3 -5 1 -9 9 -9 8 0 12 3 10 7 -7 11 32 5 48 -8 7 -7 17 -9 20 -5 4 3 18 -4
31 -16 18 -17 25 -19 29 -9 4 11 6 11 6 0 1 -7 5 -11 9 -8 5 3 9 -1 9 -9 0
-11 -4 -12 -14 -4 -7 6 -13 7 -13 3 0 -5 9 -15 21 -22 12 -8 18 -9 15 -4 -3 5
3 12 13 15 14 3 18 1 14 -9 -4 -10 3 -13 26 -10 22 2 35 -2 45 -15 7 -10 16
-16 19 -12 4 3 7 1 7 -5 0 -7 3 -11 8 -11 21 4 32 -2 26 -13 -5 -8 -1 -8 12 2
10 8 16 10 12 6 -5 -5 1 -16 12 -23 11 -8 17 -20 14 -26 -5 -8 -3 -8 7 1 19
17 42 15 35 -4 -3 -8 -2 -12 4 -9 18 11 50 -5 65 -33 l16 -27 -6 25 -6 25 15
-25 c8 -14 17 -23 20 -20 11 9 66 -35 61 -48 -3 -7 -1 -11 4 -7 14 8 41 -5 41
-20 0 -8 5 -17 12 -21 7 -4 8 -3 4 4 -12 20 3 13 34 -14 16 -15 27 -31 24 -36
-3 -5 -2 -7 3 -6 14 5 74 -55 68 -69 -2 -8 -1 -12 4 -9 4 3 19 -6 31 -19 13
-14 21 -25 17 -25 -3 0 4 -11 17 -25 61 -65 131 -245 141 -360 12 -139 -41
-308 -146 -464 -203 -304 -541 -467 -944 -456 -130 4 -145 6 -240 26 -163 35
-447 162 -428 191 3 6 2 8 -4 5 -9 -6 -39 11 -82 48 -63 54 -84 75 -68 69 10
-3 17 -1 17 5 0 6 -3 10 -7 10 -25 -4 -40 4 -58 32 -11 16 -19 35 -17 40 1 6
-1 8 -6 5 -5 -3 -19 6 -32 21 -15 18 -17 24 -7 20 11 -4 14 -2 10 9 -3 8 -11
13 -18 11 -8 -4 -11 5 -10 24 1 22 -2 28 -12 25 -8 -3 -12 -2 -8 3 3 5 0 11
-5 13 -6 2 -13 16 -16 31 -3 22 -2 27 8 21 8 -5 6 2 -4 18 -13 19 -14 28 -5
37 9 10 9 12 -3 9 -8 -2 -14 3 -13 10 4 16 -14 16 -20 0 -3 -7 -3 2 0 20 4 23
2 32 -8 33 -8 0 -5 4 6 9 l20 9 -20 1 c-11 2 -24 2 -29 1 -5 -1 -3 5 4 14 12
14 11 18 -1 26 -8 5 -9 9 -3 9 5 0 14 -4 20 -10 6 -6 10 -3 10 9 0 12 -6 18
-16 16 -9 -2 -17 3 -17 10 0 7 7 11 15 8 12 -5 12 -2 4 14 -6 11 -8 23 -5 27
3 3 1 6 -6 6 -7 0 -11 6 -8 13 2 6 0 20 -5 31 -7 13 -7 16 1 12 6 -4 11 0 11
9 0 10 -5 13 -12 9 -10 -6 -10 -5 -1 8 7 8 10 18 6 21 -3 4 -1 7 6 7 8 0 11
-7 6 -17 -5 -15 -4 -16 7 -5 11 11 10 16 -6 28 -17 12 -17 14 -4 14 9 0 20 5
24 12 5 7 3 8 -6 3 -10 -6 -12 -4 -7 8 3 9 1 19 -5 23 -7 5 -8 2 -3 -6 5 -9 4
-11 -4 -6 -15 9 -5 26 16 26 9 0 13 3 10 7 -4 3 1 13 11 21 12 10 8 9 -10 -2
-15 -9 -30 -16 -33 -16 -9 0 16 24 40 39 16 10 17 11 2 7 -11 -3 -15 -2 -12 4
3 6 0 10 -7 10 -8 0 -6 5 5 11 14 8 15 14 7 24 -9 11 -7 12 12 7 21 -5 22 -4
9 11 -14 17 -11 20 24 18 11 0 14 2 8 5 -7 3 -13 10 -13 15 0 6 4 8 9 5 5 -3
15 2 22 11 8 9 9 14 3 10 -7 -4 -14 -1 -17 7 -6 14 9 16 28 4 6 -4 11 2 12 13
1 10 -3 19 -8 19 -6 0 -7 -4 -4 -10 4 -6 -1 -7 -11 -3 -15 6 -15 7 1 15 9 6
25 8 36 5 10 -3 17 -2 14 3 -3 4 2 11 11 14 15 6 15 8 0 25 -13 14 -14 21 -5
27 7 4 10 3 5 -4 -12 -20 13 -23 33 -3 11 11 23 16 26 11 11 -19 25 -10 25 15
0 21 2 24 14 13 7 -7 11 -20 9 -28 -4 -13 -3 -13 5 0 6 8 8 18 6 22 -3 4 0 8
6 8 6 0 8 5 5 10 -8 13 1 13 28 -2 19 -10 21 -9 9 4 -10 13 -10 18 -1 24 8 5
9 3 4 -6 -6 -10 -4 -12 9 -7 9 4 14 3 11 -2 -3 -5 0 -13 6 -17 8 -5 9 -3 4 6
-6 10 -4 12 11 6 10 -4 15 -4 11 0 -4 4 -1 14 6 23 11 14 10 14 -5 2 -12 -9
-18 -10 -18 -2 0 6 3 11 8 12 56 6 72 6 72 -2 0 -6 -4 -8 -8 -5 -5 3 -9 -1 -9
-8 0 -11 4 -12 18 -3 10 6 15 15 12 21 -3 5 -1 6 6 2 6 -4 19 -2 28 6 9 7 14
8 10 2 -4 -7 0 -15 9 -18 24 -9 31 -7 14 4 -12 8 -12 10 -1 10 8 0 20 -8 28
-17 13 -16 14 -16 9 -1 -2 9 1 22 9 28 12 10 13 8 10 -9 -2 -12 0 -19 5 -16 5
3 14 -3 20 -12 10 -15 11 -15 6 -1 -3 9 2 19 10 22 21 8 24 8 24 -5 0 -5 -5
-7 -12 -3 -6 4 -8 3 -5 -3 4 -6 18 -8 32 -6 14 3 22 10 18 16 -3 6 -1 7 6 3 9
-6 9 -11 0 -22 -10 -12 -9 -13 7 -7 17 6 18 5 4 -13 -14 -17 -14 -18 2 -6 10
8 14 21 11 30 -5 14 -2 13 14 -3 11 -11 18 -24 15 -29 -3 -5 0 -6 7 -2 9 6 9
12 -1 24 -11 15 -11 15 3 5 8 -7 26 -14 40 -16 17 -3 23 -10 21 -23 -3 -15 -1
-16 11 -5 13 10 19 9 36 -8 12 -12 25 -21 29 -21 5 0 20 -13 35 -28 22 -23 25
-31 14 -42 -10 -12 -9 -12 5 -1 14 11 20 6 42 -31 54 -92 59 -203 10 -234 -33
-22 -71 -13 -135 31 -63 43 -117 58 -189 53 -101 -7 -203 -80 -231 -165 -18
-54 -7 -160 21 -217 26 -51 128 -166 148 -166 7 0 12 -4 12 -10 0 -5 7 -10 15
-10 9 0 15 -9 16 -22 0 -22 1 -22 9 -3 5 11 9 14 9 7 1 -8 6 -10 14 -6 8 5 7
2 -2 -9 -8 -10 -11 -20 -7 -24 3 -3 6 -2 6 4 0 6 11 13 25 15 14 3 25 1 25 -3
0 -5 -4 -9 -10 -9 -5 0 -10 -4 -10 -8 0 -5 14 -6 31 -4 25 4 30 2 24 -9 -7
-11 -4 -10 10 1 10 8 16 10 12 3 -4 -6 -2 -15 4 -19 8 -4 9 -3 5 4 -11 18 5
14 27 -5 17 -16 19 -17 28 -1 6 11 16 15 26 11 12 -5 14 -3 8 7 -5 9 -4 11 4
6 6 -4 9 -11 6 -16 -3 -5 0 -12 6 -16 8 -4 9 -3 5 4 -4 7 -2 12 5 12 8 0 9 4
0 13 -8 10 -7 14 4 14 8 0 12 -4 9 -8 -8 -14 17 -22 29 -9 7 8 8 10 1 7 -6 -3
-11 -1 -11 6 0 7 9 13 19 13 13 0 16 -5 12 -19 -6 -18 -5 -18 15 0 12 9 21 23
21 30 0 6 5 15 12 19 7 4 8 3 4 -4 -4 -7 -2 -12 3 -12 11 0 15 15 12 34 -1 5
5 4 13 -4 11 -8 16 -9 17 -1 1 6 2 14 3 19 0 4 13 21 28 37 15 16 24 33 21 39
-4 6 2 4 12 -4 17 -14 18 -13 13 12 -3 15 -1 25 3 22 8 -5 13 10 10 28 0 5 4
7 11 5 7 -1 13 9 14 22 1 14 9 30 17 36 13 9 14 14 4 25 -9 10 -9 11 1 6 9 -6
11 1 7 26 -4 23 -2 29 4 18 5 -8 7 -19 4 -25 -3 -5 0 -4 7 2 15 14 23 46 10
38 -4 -3 -10 1 -13 9 -4 11 1 13 19 10 13 -2 24 0 24 6 0 6 -4 9 -8 6 -4 -2
-14 -1 -22 4 -13 8 -13 11 -1 22 10 10 12 10 7 0 -4 -6 -2 -12 3 -12 17 0 13
18 -6 30 -16 10 -16 11 -1 6 16 -5 34 21 23 32 -3 3 -5 -1 -5 -8 0 -7 -2 -11
-5 -8 -8 8 6 39 15 33 4 -3 14 3 21 13 13 15 12 16 -3 3 -19 -14 -25 -2 -8 15
7 7 6 11 -4 11 -8 0 -13 -3 -11 -6 2 -4 -3 -15 -11 -26 -8 -10 -14 -14 -14 -8
0 7 4 14 9 17 5 3 8 20 7 37 -1 16 2 33 7 36 6 3 7 1 3 -5 -5 -8 -2 -10 8 -6
9 3 16 10 16 16 0 5 -4 7 -9 4 -10 -7 -24 30 -23 62 1 12 -3 20 -8 17 -6 -4
-7 1 -3 11 5 13 3 15 -8 10 -8 -4 -3 2 10 13 21 19 17 27 -11 22 -5 0 -8 6 -8
15 0 9 -5 12 -12 8 -7 -5 -8 -3 -3 6 5 8 1 19 -11 28 -19 14 -19 15 0 8 16 -5
17 -4 6 9 -7 8 -17 12 -23 8 -6 -3 -7 -1 -3 6 4 6 12 9 17 6 5 -4 9 -1 9 4 0
6 -8 11 -18 11 -27 0 -32 9 -21 38 8 22 8 23 -6 12 -15 -13 -21 -2 -7 16 4 5
3 6 -3 2 -13 -11 -27 -10 -21 1 3 5 -1 11 -9 15 -8 3 -15 15 -15 27 0 12 -3
20 -6 16 -9 -8 -52 36 -46 47 3 5 0 6 -6 2 -6 -3 -14 -1 -19 7 -15 25 -108 95
-173 130 -230 125 -529 152 -748 69 -184 -70 -370 -245 -465 -437 -71 -145
-104 -299 -105 -492 -1 -141 5 -177 64 -382 27 -95 37 -155 44 -255 13 -178
24 -212 82 -250 16 -10 25 -23 21 -30 -4 -7 -1 -6 9 1 18 15 32 5 18 -12 -8
-10 -3 -12 20 -10 32 3 75 -29 64 -46 -3 -5 2 -6 11 -2 13 4 14 8 4 14 -8 4 1
7 21 5 19 -2 39 2 43 8 5 6 6 2 2 -10 -5 -21 -1 -22 58 -15 5 1 6 5 2 10 -3 6
4 8 16 6 12 -3 27 -1 33 2 15 10 96 11 102 2 2 -4 -8 -6 -23 -4 -16 2 -22 2
-15 -1 10 -5 10 -9 0 -22 -8 -11 -4 -9 11 3 28 24 24 23 47 5 17 -14 18 -14 6
1 -10 14 -10 18 3 23 10 4 14 2 9 -5 -4 -7 1 -9 15 -4 17 5 20 3 15 -12 -4
-14 -4 -15 4 -4 6 8 15 10 22 6 9 -5 11 -4 6 4 -9 15 42 7 58 -9 13 -13 26
-13 26 1 0 5 -4 7 -10 4 -6 -4 -7 1 -3 11 6 16 8 16 16 -4 11 -24 43 -41 33
-17 -3 8 -1 15 4 15 6 0 10 -7 10 -15 0 -18 14 -19 43 -4 21 12 21 11 5 -8
-10 -11 -18 -24 -18 -29 0 -5 5 -2 10 6 8 13 11 12 25 -5 16 -19 16 -19 4 4
-10 21 -9 23 6 18 9 -4 19 -7 21 -7 3 0 2 -5 -1 -10 -3 -6 -1 -10 4 -10 6 0
11 5 11 10 0 6 5 10 11 10 6 0 9 -6 6 -14 -6 -15 6 -15 56 -1 18 5 19 4 7 -5
-12 -10 -11 -11 8 -7 12 3 22 2 22 -1 0 -11 103 -8 120 2 9 6 7 0 -4 -13 -19
-21 -19 -21 -1 -15 14 6 16 4 10 -6 -5 -9 -4 -11 4 -6 6 4 9 11 6 16 -3 5 0
12 6 16 7 4 9 3 6 -3 -4 -6 2 -18 13 -28 13 -12 20 -14 20 -5 0 7 7 10 16 6
13 -5 14 -4 6 7 -9 10 -8 14 3 14 8 0 15 -5 15 -10 0 -6 10 -2 21 9 22 19 22
19 10 -3 -6 -13 -17 -23 -23 -23 -6 0 -8 -3 -5 -6 4 -4 14 -1 23 7 21 17 114
19 114 2 0 -7 4 -13 10 -13 5 0 7 8 3 18 -6 16 -5 16 13 1 20 -17 54 -22 54
-7 0 5 -9 6 -20 3 -15 -5 -20 -2 -19 12 0 10 3 13 6 6 3 -9 10 -10 24 -3 18
10 23 7 20 -15 -1 -5 6 -1 14 9 9 12 15 15 15 7 0 -8 8 -11 20 -8 13 3 20 0
20 -9 0 -8 4 -14 10 -14 5 0 7 6 4 14 -3 8 0 17 7 22 7 4 10 3 5 -4 -3 -5 -1
-12 6 -14 19 -7 58 3 58 14 0 5 7 2 16 -6 8 -9 20 -16 25 -16 6 0 3 7 -5 16
-20 19 -20 21 -1 21 8 0 12 -4 9 -9 -3 -4 3 -9 13 -10 54 -4 71 -3 99 9 24 9
34 9 44 0 10 -9 11 -9 5 1 -4 8 -2 13 6 11 35 -4 42 0 28 18 -11 13 -8 13 16
-3 24 -16 28 -16 23 -3 -4 10 -1 16 8 16 10 0 12 -7 8 -20 -4 -13 -2 -17 5
-13 6 4 11 14 11 22 0 8 5 14 11 14 6 0 8 -9 4 -22 -6 -22 -5 -22 6 -3 16 26
29 34 46 28 11 -4 11 -8 1 -22 -12 -14 -11 -14 4 -2 10 7 16 17 13 21 -3 4 6
8 20 8 14 0 22 -5 18 -11 -3 -6 -1 -7 6 -3 6 4 9 11 6 16 -4 7 18 22 37 24 3
1 9 4 13 8 10 10 36 -2 29 -14 -3 -5 3 -4 15 4 12 7 21 16 21 21 0 4 9 3 19
-3 29 -15 37 -12 15 6 -10 8 -13 12 -5 8 11 -5 13 -3 8 12 -6 15 -3 13 11 -5
13 -16 21 -20 26 -12 4 6 10 9 14 7 4 -2 16 2 26 10 17 12 17 16 5 30 -13 16
-12 16 8 4 12 -8 20 -17 18 -20 -2 -4 2 -7 10 -7 12 0 12 4 -2 21 -10 12 -14
18 -9 13 5 -4 17 0 26 8 15 14 18 14 23 1 4 -10 1 -13 -9 -9 -7 3 -14 1 -14
-5 0 -19 35 -5 35 14 1 10 6 18 13 17 7 -2 12 2 12 7 0 6 5 10 11 10 8 0 8 -5
-1 -15 -7 -8 -17 -12 -24 -8 -6 3 -7 2 -3 -2 11 -13 38 -15 30 -2 -4 6 0 8 10
4 10 -4 14 -2 12 6 -3 7 7 20 20 30 14 10 25 15 24 10 -4 -21 2 -43 12 -43 5
0 7 5 4 11 -11 16 -13 59 -4 53 5 -3 9 -1 9 3 0 5 9 9 20 10 13 1 18 -2 13
-10 -5 -9 -2 -8 9 0 8 7 18 10 22 6 4 -4 4 0 0 10 -3 9 -11 14 -18 10 -6 -3
-7 -2 -3 3 5 5 13 10 18 10 5 1 14 2 20 3 5 0 7 7 3 13 -6 10 -5 10 7 1 13
-10 20 -9 40 10 13 12 27 22 31 22 12 0 14 12 4 22 -5 4 -7 3 -3 -3 3 -6 0
-11 -8 -11 -8 0 -15 4 -15 9 0 8 15 12 39 8 13 -1 13 1 2 14 -12 14 -11 16 4
10 12 -5 16 -4 12 3 -4 6 3 9 17 8 20 -3 24 1 21 21 -1 13 2 21 6 18 5 -3 9 0
9 6 0 6 4 9 9 6 5 -3 12 1 15 10 3 8 11 12 17 8 8 -4 9 -3 5 4 -4 7 -2 12 5
12 7 0 9 3 6 6 -4 4 -13 2 -20 -4 -14 -12 -27 -6 -27 12 0 6 4 4 10 -4 8 -12
10 -12 15 3 6 14 11 15 28 5 12 -6 19 -7 15 -3 -4 5 -2 15 5 23 8 10 8 13 1 9
-12 -7 -29 21 -19 31 3 3 5 0 5 -6 0 -7 5 -12 11 -12 6 0 8 7 5 16 -3 8 -2 12
4 9 6 -3 12 1 15 9 3 9 8 24 12 34 3 9 5 21 4 25 -1 5 3 6 9 2 9 -6 14 8 11
28 -1 5 3 6 9 2 6 -3 8 -10 6 -14 -3 -4 -1 -13 3 -20 5 -7 7 6 6 31 -2 49 4
66 16 47 7 -11 9 -11 9 2 0 9 6 22 13 28 8 6 12 23 9 42 -3 22 -1 30 7 25 14
-9 14 0 -1 27 -10 19 -9 21 4 9 13 -10 18 -10 24 -1 5 8 3 9 -6 4 -10 -6 -12
-4 -7 9 4 10 3 15 -3 11 -6 -3 -10 -2 -10 3 0 6 7 12 15 16 8 3 15 13 15 21 0
9 4 13 10 10 6 -3 7 1 4 9 -3 9 -3 24 1 34 5 9 7 25 6 35 -1 10 3 26 11 35 9
11 10 14 1 8 -7 -4 -13 -2 -13 3 0 6 8 11 18 12 10 0 12 3 4 6 -6 2 -10 10 -6
16 3 7 -4 1 -15 -12 -12 -13 -21 -21 -21 -19 0 15 34 70 46 75 8 3 11 10 8 15
-4 6 -10 4 -16 -6 -10 -17 -28 -13 -28 7 0 7 4 6 10 -3 8 -12 10 -10 10 8 0
13 4 20 10 17 5 -3 7 0 4 9 -3 8 -12 17 -20 20 -17 6 -10 26 9 26 7 0 6 -4 -3
-11 -12 -8 -12 -10 -1 -7 8 2 15 11 17 20 1 10 -3 15 -11 12 -9 -4 -12 1 -11
13 2 10 -1 23 -5 29 -6 8 -1 10 17 8 14 -1 23 1 19 4 -4 4 -12 7 -18 7 -7 0
-12 9 -13 20 -1 12 -6 31 -13 43 -7 12 -8 22 -4 21 27 -4 34 1 20 16 -9 8 -13
24 -10 35 3 12 0 20 -8 20 -7 0 -9 3 -6 6 4 4 15 1 24 -7 16 -12 17 -12 7 1
-6 8 -10 25 -9 37 1 15 -3 19 -14 15 -14 -5 -14 -4 -1 13 14 17 13 17 -10 12
-14 -4 -19 -4 -12 -1 6 3 9 11 5 17 -11 18 -12 38 -2 31 5 -3 6 -10 3 -16 -4
-7 -2 -8 4 -4 16 10 4 34 -20 42 -14 4 -17 8 -8 14 17 11 17 16 -4 39 -17 18
-15 25 5 23 3 -1 6 5 6 13 0 7 -8 12 -19 10 -10 -2 -18 0 -18 6 0 5 7 9 16 9
8 0 12 5 9 10 -4 6 -11 8 -16 5 -8 -6 -13 8 -10 28 1 4 -6 10 -14 13 -14 6
-14 8 1 19 11 7 14 17 9 25 -6 10 -11 9 -23 -6 -11 -14 -13 -15 -9 -3 3 9 0
22 -6 28 -9 9 -8 11 4 6 10 -4 16 0 16 11 0 9 -9 19 -19 22 -14 3 -18 11 -15
24 4 14 2 17 -7 9 -8 -7 -12 -5 -13 10 -1 12 3 17 9 13 7 -4 8 -2 4 5 -6 9
-11 9 -21 1 -9 -8 -13 -7 -12 2 1 40 -4 59 -15 52 -7 -5 -9 -2 -5 9 4 10 0 17
-11 19 -11 2 -16 13 -17 32 0 17 -6 31 -15 33 -9 3 -11 1 -5 -4 6 -4 11 -15
13 -23 1 -10 -2 -9 -13 4 -8 11 -15 26 -15 33 0 7 -4 13 -10 13 -5 0 -10 6
-10 14 0 8 -7 17 -16 20 -10 4 -14 12 -10 23 4 10 4 14 0 10 -8 -8 -54 31 -54
46 0 5 -26 32 -57 61 -32 28 -70 63 -86 79 -16 15 -30 27 -32 27 -2 0 -32 20
-67 44 -149 104 -302 173 -738 331 -162 59 -344 131 -405 159 -119 57 -258
134 -263 148 -2 4 -8 8 -13 8 -19 0 -119 82 -112 93 4 6 1 7 -6 3 -13 -8 -54
22 -46 34 2 4 -7 13 -21 20 -15 8 -23 19 -19 28 4 10 0 12 -12 8 -10 -4 -14
-4 -11 0 4 3 -4 18 -17 32 -18 20 -22 29 -13 39 8 10 7 12 -5 8 -18 -8 -32 11
-16 21 8 5 9 3 4 -7 -8 -12 -6 -12 8 0 18 14 22 22 10 20 -38 -6 -48 9 -29 39
5 8 3 19 -3 25 -9 9 -11 7 -6 -8 5 -14 4 -16 -3 -7 -5 8 -6 31 -2 53 6 31 5
37 -5 29 -10 -8 -15 -8 -21 1 -5 8 -3 9 6 4 10 -6 12 -1 8 19 -3 14 -1 29 4
32 4 3 6 10 3 15 -13 20 -13 46 0 46 8 0 12 -4 9 -9 -9 -15 3 -8 17 9 10 11
10 14 2 9 -16 -9 -17 6 -2 21 8 8 7 13 -2 18 -8 6 -10 4 -4 -6 5 -8 4 -10 0
-6 -5 4 -10 14 -11 22 -2 11 2 12 16 5 13 -7 21 -7 25 0 6 10 5 11 -14 14 -5
0 -13 5 -18 9 -4 5 -2 7 6 5 7 -2 16 3 19 11 3 9 0 11 -7 6 -9 -5 -9 -2 0 13
7 12 17 18 21 16 4 -3 8 0 8 7 0 8 5 7 18 -2 15 -12 16 -12 5 2 -7 9 -9 20 -5
25 4 4 -1 2 -11 -5 -9 -8 -20 -11 -24 -7 -3 3 -1 6 5 6 7 0 12 7 12 15 0 8 9
20 20 27 11 7 20 16 20 21 0 4 -4 5 -10 2 -6 -4 -7 1 -3 11 5 14 8 13 18 -6
11 -21 12 -21 20 -4 8 19 11 28 14 40 0 4 7 1 15 -5 11 -9 16 -9 22 0 4 7 3 9
-4 5 -6 -3 -13 -2 -17 4 -3 6 1 13 10 16 10 4 15 14 12 26 -5 16 -3 17 10 6
14 -11 15 -10 9 12 -6 23 -6 24 7 7 13 -15 15 -16 21 -2 3 8 10 14 15 13 8 -3
11 2 11 19 0 3 -8 -2 -19 -11 -17 -15 -19 -15 -25 -1 -4 10 -2 14 5 9 7 -4 21
4 31 17 11 13 17 19 14 12 -10 -20 12 -25 41 -9 16 8 24 15 20 16 -5 0 -16 -4
-26 -9 -13 -8 -17 -5 -18 12 0 12 1 16 4 10 7 -18 23 -16 23 2 0 8 5 15 11 15
5 0 8 -4 5 -9 -3 -5 2 -12 11 -15 10 -4 14 -4 11 0 -4 4 -3 15 3 25 8 16 14
17 30 8 17 -9 21 -7 26 10 3 12 10 21 17 20 6 -1 26 -1 44 0 24 1 31 5 26 14
-5 7 0 6 11 -3 15 -12 17 -12 10 -1 -6 11 -4 13 8 8 48 -20 52 -20 32 -4 -19
16 -19 16 8 11 20 -3 26 -1 21 7 -4 7 -3 9 4 5 5 -3 12 -3 15 1 2 5 2 2 1 -4
-2 -7 1 -13 6 -13 6 0 10 6 10 13 0 8 4 7 10 -3 6 -10 10 -11 10 -2 0 6 6 12
14 12 8 0 16 3 19 8 2 4 2 2 1 -5 -3 -12 25 -27 34 -18 3 3 0 5 -6 5 -7 0 -12
3 -12 8 0 4 24 7 54 7 30 0 54 -4 53 -10 -1 -5 8 -10 20 -11 12 -1 20 3 17 8
-3 4 -10 6 -15 3 -5 -4 -9 -1 -9 4 0 17 19 13 37 -9 12 -14 20 -16 30 -9 7 6
10 15 7 20 -8 13 18 7 34 -8 17 -16 36 -17 26 -1 -4 7 -3 8 4 4 6 -4 9 -12 6
-20 -3 -7 2 -13 10 -13 8 0 13 4 10 9 -3 4 0 8 7 8 7 0 9 -9 6 -22 l-6 -23 17
21 c14 16 20 18 29 9 7 -7 9 -16 6 -19 -4 -3 0 -7 8 -7 8 -1 21 -2 29 -3 8 -1
21 3 29 9 11 7 13 7 7 -2 -4 -7 -2 -21 4 -30 10 -15 11 -15 6 -1 -6 19 18 18
37 -2 10 -12 9 -12 -5 -1 -10 8 -18 9 -18 3 0 -13 30 -26 55 -23 17 3 18 1 5
-16 -14 -17 -14 -17 7 0 15 13 23 15 28 7 4 -7 1 -16 -6 -21 -8 -5 -9 -9 -4
-9 6 0 16 5 23 12 9 9 12 8 12 -5 0 -10 6 -17 13 -16 31 4 38 -1 28 -19 -7
-14 -6 -19 4 -19 8 0 12 4 9 9 -3 4 2 8 11 8 9 0 14 -4 10 -9 -3 -6 5 -15 17
-22 28 -14 94 -81 90 -91 -1 -5 2 -8 8 -8 12 0 80 -102 108 -161 54 -117 62
-294 22 -489 -11 -56 -18 -111 -15 -121 4 -11 26 -29 51 -40 24 -12 44 -26 44
-32 0 -7 -4 -7 -12 1 -20 20 -30 14 -10 -6 9 -11 21 -17 25 -14 5 2 18 -4 29
-15 12 -10 18 -13 15 -6 -11 18 8 24 38 13 23 -9 26 -8 22 4 -4 10 -1 13 8 9
8 -3 13 -8 10 -12 -2 -4 2 -8 10 -8 19 0 19 2 -2 23 -17 17 -17 18 1 11 10 -4
25 -2 32 4 10 8 14 8 14 0 0 -6 -4 -11 -10 -11 -5 0 -10 -5 -10 -11 0 -8 4 -8
13 0 10 8 17 7 27 -2 10 -10 11 -9 4 3 -5 8 -9 22 -11 30 -1 12 1 12 11 -2 11
-15 13 -15 26 5 12 20 12 21 -3 8 -11 -9 -17 -10 -17 -2 0 11 7 13 48 14 12 0
21 5 19 10 -4 13 23 47 36 47 5 0 3 -7 -4 -17 -13 -15 -12 -15 8 -2 12 7 18
16 12 19 -6 4 -4 18 6 36 8 16 15 23 15 17 0 -7 5 -13 10 -13 7 0 7 7 0 21
-11 19 -10 20 12 8 21 -11 22 -11 9 5 -12 15 -12 17 0 14 8 -2 17 -7 21 -13 5
-6 8 -6 8 2 0 7 -8 17 -17 22 -11 6 -13 11 -5 11 7 0 10 5 7 10 -4 6 -11 7
-17 4 -6 -4 -8 -2 -5 4 4 5 18 9 32 8 21 -3 23 -1 14 16 -15 28 7 54 30 36 15
-12 15 -11 1 6 -14 18 -13 19 2 13 10 -3 20 -1 24 6 4 7 4 9 -1 5 -4 -4 -17
-3 -28 3 -15 9 -18 8 -12 -2 5 -8 4 -10 -3 -5 -20 12 -13 27 11 22 15 -3 24 1
24 10 0 7 -4 11 -9 8 -12 -8 -10 10 3 23 9 9 7 11 -8 7 -12 -3 -24 -1 -27 5
-5 7 -1 8 10 4 12 -4 15 -3 10 5 -5 8 -1 10 11 5 16 -6 17 -5 3 12 -14 17 -13
18 2 13 17 -7 20 14 3 29 -4 4 -5 3 -2 -3 3 -6 0 -11 -6 -11 -10 0 -10 8 2 33
12 28 17 31 30 21 12 -9 12 -7 -1 8 -9 11 -16 22 -16 25 3 18 -15 49 -25 43
-8 -4 -7 -1 1 9 10 13 10 17 0 21 -10 4 -10 6 1 6 11 1 11 4 0 18 -10 11 -10
14 -1 9 7 -4 12 -2 12 8 0 8 -6 17 -12 20 -7 3 -3 3 10 0 12 -3 22 -1 22 5 0
6 -3 10 -7 10 -20 -3 -31 3 -40 24 -9 18 -8 24 2 24 7 0 11 -6 8 -13 -2 -6 0
-15 6 -18 19 -12 7 39 -14 57 -11 10 -15 16 -9 13 7 -3 14 5 16 19 3 13 2 22
-3 20 -14 -9 -22 16 -9 28 8 7 10 8 7 1 -3 -6 0 -11 8 -11 11 0 9 7 -6 29 -11
15 -25 25 -31 22 -7 -4 -8 -2 -4 5 4 6 11 9 16 6 5 -3 12 0 16 6 4 8 3 9 -4 5
-7 -4 -12 -3 -12 3 0 6 -6 9 -12 7 -7 -1 -10 -1 -5 1 4 3 4 10 1 15 -4 6 -2 8
4 4 6 -3 14 -1 18 5 5 8 3 9 -5 5 -8 -5 -14 0 -18 13 -3 11 -9 18 -14 15 -5
-3 -9 0 -9 6 0 7 8 9 21 5 19 -6 20 -5 8 8 -8 8 -17 13 -21 10 -4 -2 -5 3 -2
11 3 9 11 13 17 9 6 -3 7 -1 3 5 -4 7 -2 12 5 12 7 0 10 3 7 6 -4 3 -17 0 -30
-7 -23 -12 -23 -12 -4 10 11 11 15 21 11 21 -4 0 0 9 10 20 10 11 13 20 8 20
-11 0 -27 -29 -24 -43 1 -5 -3 -6 -8 -3 -6 4 -4 20 5 42 15 35 15 36 -8 29
-13 -3 -18 -3 -13 2 17 13 18 53 2 53 -19 0 -29 24 -16 37 6 6 4 15 -7 24 -12
9 -15 10 -10 2 4 -7 3 -13 -2 -13 -6 0 -13 11 -16 25 -15 57 -109 69 -285 35
-126 -25 -175 -18 -325 42 -121 49 -201 72 -310 92 -205 38 -419 45 -581 20z
m605 -328 c0 -3 -4 -8 -10 -11 -5 -3 -10 -1 -10 4 0 6 5 11 10 11 6 0 10 -2
10 -4z m120 -50 c0 -2 -7 -7 -16 -10 -8 -3 -12 -2 -9 4 6 10 25 14 25 6z
m-1034 -135 c-15 -15 -24 -30 -20 -33 3 -3 1 -9 -5 -12 -6 -4 -8 2 -6 16 3 13
9 24 15 26 6 2 8 8 4 13 -3 5 0 8 8 7 7 -2 12 3 10 10 -1 8 2 11 9 7 7 -5 2
-17 -15 -34z m1924 -79 c0 -5 -7 -9 -15 -9 -8 0 -12 4 -9 9 3 4 9 8 15 8 5 0
9 -4 9 -8z m35 -330 c-2 -9 -4 -18 -4 -20 -1 -2 -6 0 -11 3 -8 5 -8 11 -1 19
6 7 7 17 3 21 -4 5 -2 5 5 2 6 -4 10 -15 8 -25z m-205 -452 c0 -5 -5 -10 -11
-10 -5 0 -7 5 -4 10 3 6 8 10 11 10 2 0 4 -4 4 -10z m-225 -60 c-3 -5 -12 -10
-18 -10 -7 0 -6 4 3 10 19 12 23 12 15 0z m-1072 -775 c4 -8 2 -17 -3 -20 -6
-4 -10 3 -10 14 0 25 6 27 13 6z m77 -21 c0 -8 -19 -13 -24 -6 -3 5 1 9 9 9 8
0 15 -2 15 -3z m560 -244 c0 -5 -2 -10 -4 -10 -3 0 -8 5 -11 10 -3 6 -1 10 4
10 6 0 11 -4 11 -10z m967 -86 c-3 -3 -12 -4 -19 -1 -8 3 -5 6 6 6 11 1 17 -2
13 -5z m-2279 -189 c-3 -3 -9 2 -12 12 -6 14 -5 15 5 6 7 -7 10 -15 7 -18z
m-82 -57 c-10 -6 -22 -6 -26 -2 -5 5 3 10 18 11 22 1 24 0 8 -9z m-75 -75 c13
-16 12 -17 -3 -4 -10 7 -18 15 -18 17 0 8 8 3 21 -13z m2544 -53 c3 -5 1 -10
-4 -10 -6 0 -11 5 -11 10 0 6 2 10 4 10 3 0 8 -4 11 -10z m-10 -514 c-8 -13
-12 -26 -8 -29 3 -4 1 -7 -6 -7 -9 0 -11 6 -6 18 5 9 8 24 9 33 0 9 6 15 13
12 9 -4 9 -10 -2 -27z m-2568 -32 c-3 -3 -12 -4 -19 -1 -8 3 -5 6 6 6 11 1 17
-2 13 -5z m12 -37 c0 -9 -2 -8 -6 1 -2 6 -10 9 -15 6 -7 -4 -8 -2 -4 5 9 13
26 5 25 -12z m2501 -143 c-10 -11 -40 -9 -40 3 0 3 7 2 16 -1 11 -4 15 -2 11
8 -4 10 -1 13 9 9 11 -4 12 -9 4 -19z m-1710 8 c0 -13 -12 -22 -22 -16 -10 6
-1 24 13 24 5 0 9 -4 9 -8z m1485 -331 c3 -5 2 -12 -3 -15 -5 -3 -9 1 -9 9 0
17 3 19 12 6z m-85 -84 c0 -2 -8 -11 -18 -20 -15 -14 -19 -15 -19 -2 0 8 4 12
9 9 4 -3 8 0 8 5 0 6 5 11 10 11 6 0 10 -2 10 -3z m-368 -219 c-7 -7 -12 -8
-12 -4 0 5 -7 3 -15 -4 -10 -9 -15 -9 -15 -1 0 10 14 15 34 12 5 -1 5 6 2 16
-6 14 -5 16 5 6 10 -10 10 -16 1 -25z m-1895 -33 c0 -6 -6 -12 -12 -12 -6 0
-12 6 -12 12 0 6 6 12 12 12 6 0 12 -6 12 -12z m1663 -21 c0 -8 -19 -13 -24
-6 -3 5 1 9 9 9 8 0 15 -2 15 -3z m-1100 -28 c0 -3 -4 -8 -10 -11 -5 -3 -10
-1 -10 4 0 6 5 11 10 11 6 0 10 -2 10 -4z m237 -36 c-1 -11 -5 -20 -9 -20 -10
0 -10 4 -2 24 8 22 13 20 11 -4z m583 8 c0 -4 -3 -8 -7 -9 -56 -6 -74 -6 -78
0 -2 5 7 7 20 5 14 -1 25 2 25 6 0 5 9 8 20 7 11 -1 20 -5 20 -9z m-180 -12
c0 -3 -4 -8 -10 -11 -5 -3 -10 -1 -10 4 0 6 5 11 10 11 6 0 10 -2 10 -4z"/>
<path d="M3907 4449 c7 -7 15 -10 18 -7 3 3 -2 9 -12 12 -14 6 -15 5 -6 -5z"/>
<path d="M3935 4399 c-3 -4 2 -6 10 -5 21 3 28 13 10 13 -9 0 -18 -4 -20 -8z"/>
<path d="M2790 4389 c0 -5 5 -7 10 -4 6 3 10 2 10 -3 0 -5 7 -9 16 -9 14 0 14
2 -2 14 -22 16 -34 17 -34 2z"/>
<path d="M2326 4348 c3 -4 11 -5 19 -1 21 7 19 12 -4 10 -11 0 -18 -5 -15 -9z"/>
<path d="M2263 4325 c0 -8 4 -12 9 -9 5 3 6 10 3 15 -9 13 -12 11 -12 -6z"/>
<path d="M2316 4318 c3 -5 10 -6 15 -3 13 9 11 12 -6 12 -8 0 -12 -4 -9 -9z"/>
<path d="M3255 4169 c-4 -6 -5 -12 -2 -15 2 -3 7 2 10 11 7 17 1 20 -8 4z"/>
<path d="M4019 3888 c-5 -13 -5 -60 0 -63 4 -2 7 12 7 31 0 29 -3 42 -7 32z"/>
<path d="M1910 3861 c6 -12 5 -22 -3 -30 -9 -10 -8 -11 6 -5 10 3 16 12 13 20
-3 7 0 14 7 17 6 2 2 6 -11 9 -18 5 -20 3 -12 -11z"/>
<path d="M1940 3780 c-9 -6 -10 -10 -3 -10 6 0 15 5 18 10 8 12 4 12 -15 0z"/>
<path d="M4027 3719 c7 -7 15 -10 18 -7 3 3 -2 9 -12 12 -14 6 -15 5 -6 -5z"/>
<path d="M3970 3521 c0 -6 4 -12 8 -15 5 -3 9 1 9 9 0 8 -4 15 -9 15 -4 0 -8
-4 -8 -9z"/>
<path d="M3953 3465 c0 -8 4 -15 9 -15 4 0 8 4 8 9 0 6 -4 12 -8 15 -5 3 -9
-1 -9 -9z"/>
<path d="M3885 3370 c-3 -6 1 -7 9 -4 18 7 21 14 7 14 -6 0 -13 -4 -16 -10z"/>
<path d="M3790 3259 c0 -5 5 -7 10 -4 6 3 10 8 10 11 0 2 -4 4 -10 4 -5 0 -10
-5 -10 -11z"/>
<path d="M3610 3220 c0 -5 5 -10 11 -10 5 0 7 5 4 10 -3 6 -8 10 -11 10 -2 0
-4 -4 -4 -10z"/>
<path d="M1875 2775 c11 -9 19 -20 18 -25 -2 -5 4 -7 12 -4 21 8 19 11 -17 29
-31 15 -31 15 -13 0z"/>
<path d="M2430 2500 c0 -5 5 -10 11 -10 5 0 7 5 4 10 -3 6 -8 10 -11 10 -2 0
-4 -4 -4 -10z"/>
<path d="M2710 2391 c0 -6 4 -13 10 -16 6 -3 7 1 4 9 -7 18 -14 21 -14 7z"/>
<path d="M2780 2364 c-14 -17 -13 -18 2 -6 14 11 18 10 28 -8 9 -17 14 -19 26
-9 10 8 14 8 14 0 0 -6 5 -11 12 -11 7 0 5 7 -6 18 -14 12 -20 14 -23 4 -3 -8
-10 -6 -22 9 -16 20 -17 20 -31 3z"/>
<path d="M2996 2281 c-3 -5 1 -11 9 -14 9 -4 12 -1 8 9 -6 16 -10 17 -17 5z"/>
<path d="M4150 2060 c-9 -6 -10 -10 -3 -10 6 0 15 5 18 10 8 12 4 12 -15 0z"/>
<path d="M4158 2023 c7 -3 16 -2 19 1 4 3 -2 6 -13 5 -11 0 -14 -3 -6 -6z"/>
<path d="M2005 2011 c-3 -5 -1 -12 5 -16 5 -3 10 1 10 9 0 18 -6 21 -15 7z"/>
<path d="M2080 2000 c-8 -5 -10 -10 -5 -10 6 0 17 5 25 10 8 5 11 10 5 10 -5
0 -17 -5 -25 -10z"/>
<path d="M3435 2000 c-3 -5 -1 -10 4 -10 6 0 11 5 11 10 0 6 -2 10 -4 10 -3 0
-8 -4 -11 -10z"/>
<path d="M2370 1975 c0 -7 30 -13 34 -7 3 4 -4 9 -15 9 -10 1 -19 0 -19 -2z"/>
<path d="M1910 1960 c0 -5 5 -10 11 -10 5 0 7 5 4 10 -3 6 -8 10 -11 10 -2 0
-4 -4 -4 -10z"/>
<path d="M4178 1938 c5 -5 16 -8 23 -6 8 3 3 7 -10 11 -17 4 -21 3 -13 -5z"/>
<path d="M1810 1916 c0 -8 4 -17 9 -20 5 -4 7 3 4 14 -6 23 -13 26 -13 6z"/>
<path d="M4198 1903 c7 -3 16 -2 19 1 4 3 -2 6 -13 5 -11 0 -14 -3 -6 -6z"/>
<path d="M2837 1835 c-4 -8 -3 -16 1 -19 4 -3 9 4 9 15 2 23 -3 25 -10 4z"/>
<path d="M1650 1715 c0 -8 2 -15 4 -15 2 0 6 7 10 15 3 8 1 15 -4 15 -6 0 -10
-7 -10 -15z"/>
<path d="M2863 1695 c0 -7 6 -11 14 -8 7 3 13 6 13 8 0 2 -6 5 -13 8 -8 3 -14
-1 -14 -8z"/>
<path d="M4235 1701 c-3 -5 0 -13 6 -17 7 -4 9 -3 5 4 -3 5 0 13 6 15 9 4 10
6 1 6 -6 1 -14 -3 -18 -8z"/>
<path d="M4232 1641 c4 -13 18 -16 19 -4 0 4 -5 9 -11 12 -7 2 -11 -2 -8 -8z"/>
<path d="M4245 1600 c-3 -5 -1 -10 4 -10 6 0 11 5 11 10 0 6 -2 10 -4 10 -3 0
-8 -4 -11 -10z"/>
<path d="M4245 1540 c-3 -5 -2 -10 4 -10 5 0 13 5 16 10 3 6 2 10 -4 10 -5 0
-13 -4 -16 -10z"/>
<path d="M1607 1496 c-4 -10 -1 -13 8 -9 8 3 12 9 9 14 -7 12 -11 11 -17 -5z"/>
<path d="M1605 1460 c-3 -5 -2 -10 4 -10 5 0 13 5 16 10 3 6 2 10 -4 10 -5 0
-13 -4 -16 -10z"/>
<path d="M2836 1353 c-6 -14 -5 -15 5 -6 7 7 10 15 7 18 -3 3 -9 -2 -12 -12z"/>
<path d="M2820 1320 c-9 -6 -10 -10 -3 -10 6 0 15 5 18 10 8 12 4 12 -15 0z"/>
<path d="M2800 1260 c-8 -5 -12 -12 -9 -15 4 -3 12 1 19 10 14 17 11 19 -10 5z"/>
<path d="M2766 1235 c-9 -26 -7 -32 5 -12 6 10 9 21 6 23 -2 3 -7 -2 -11 -11z"/>
<path d="M2712 1161 c-10 -17 -22 -28 -27 -23 -5 4 -5 1 -1 -6 5 -7 11 -11 14
-8 3 3 12 0 21 -7 14 -11 14 -10 2 6 -13 16 -13 20 0 28 8 5 10 9 4 9 -5 0 -3
4 5 10 8 5 11 12 8 16 -4 3 -15 -8 -26 -25z"/>
<path d="M1681 1141 c-8 -5 -9 -11 -3 -15 5 -3 12 1 16 9 6 17 6 18 -13 6z"/>
<path d="M2650 1079 c0 -5 5 -7 10 -4 6 3 10 8 10 11 0 2 -4 4 -10 4 -5 0 -10
-5 -10 -11z"/>
<path d="M1750 1010 c-9 -6 -10 -10 -3 -10 6 0 15 5 18 10 8 12 4 12 -15 0z"/>
<path d="M4135 971 c-3 -5 -2 -12 3 -15 5 -3 9 1 9 9 0 17 -3 19 -12 6z"/>
<path d="M4086 902 c-3 -5 1 -9 9 -9 8 0 15 4 15 9 0 4 -4 8 -9 8 -6 0 -12 -4
-15 -8z"/>
<path d="M3833 565 c0 -8 4 -12 9 -9 5 3 6 10 3 15 -9 13 -12 11 -12 -6z"/>
<path d="M3710 519 c0 -5 5 -7 10 -4 6 3 10 8 10 11 0 2 -4 4 -10 4 -5 0 -10
-5 -10 -11z"/>
<path d="M3730 500 c0 -5 5 -10 11 -10 5 0 7 5 4 10 -3 6 -8 10 -11 10 -2 0
-4 -4 -4 -10z"/>
<path d="M1411 384 c6 -7 16 -11 21 -8 11 7 3 17 -18 20 -12 2 -13 -1 -3 -12z"/>
<path d="M1655 370 c-3 -5 3 -7 12 -6 10 2 22 -2 26 -8 6 -7 7 -6 5 3 -5 16
-35 24 -43 11z"/>
<path d="M1630 350 c6 -11 13 -20 16 -20 2 0 0 9 -6 20 -6 11 -13 20 -16 20
-2 0 0 -9 6 -20z"/>
<path d="M3315 361 c-3 -5 -2 -12 3 -15 5 -3 9 1 9 9 0 17 -3 19 -12 6z"/>
<path d="M3285 349 c-4 -6 -5 -12 -2 -15 2 -3 7 2 10 11 7 17 1 20 -8 4z"/>
<path d="M3305 320 c-3 -6 1 -7 9 -4 18 7 21 14 7 14 -6 0 -13 -4 -16 -10z"/>
<path d="M2170 279 c0 -5 5 -7 10 -4 6 3 10 8 10 11 0 2 -4 4 -10 4 -5 0 -10
-5 -10 -11z"/>
<path d="M2235 280 c3 -5 8 -10 11 -10 2 0 4 5 4 10 0 6 -5 10 -11 10 -5 0 -7
-4 -4 -10z"/>
<path d="M2270 286 c0 -2 7 -7 16 -10 8 -3 12 -2 9 4 -6 10 -25 14 -25 6z"/>
<path d="M2470 262 c0 -4 10 -9 22 -9 18 -2 20 0 8 7 -18 12 -30 13 -30 2z"/>
<path d="M2687 259 c7 -7 15 -10 18 -7 3 3 -2 9 -12 12 -14 6 -15 5 -6 -5z"/>
</g>
</svg>
